<svg width="23" height="30" viewBox="0 0 23 30" fill="none" xmlns="http://www.w3.org/2000/svg">
<path d="M11.5333 29.5C5.20859 29.5 0.333313 24.7565 0.333313 18.5636C0.333313 16.3236 0.728606 14.6106 1.51919 13.293C2.30978 12.1071 2.70507 11.5801 3.36389 10.9213C3.62742 10.7895 3.75918 10.526 4.02271 10.2624L4.418 9.73537C5.07682 9.07655 5.20859 8.94479 5.86741 7.75891C6.52623 6.57303 7.05329 3.80599 7.05329 1.82952C7.05329 1.30247 7.31681 0.907174 7.84387 0.643645C8.23916 0.380117 8.76622 0.511881 9.16151 0.77541L9.82033 1.30247C11.2697 2.35658 13.1144 3.93775 14.5638 6.17774C15.4862 7.62715 16.4085 9.60361 16.9356 11.1848C17.1991 10.6577 17.4627 9.9989 17.5944 9.20832C17.7262 8.68126 18.1215 8.1542 18.6485 8.02244C19.1756 7.89068 19.8344 8.1542 20.0979 8.68126C21.0203 10.2624 21.1521 10.526 21.9426 12.8977C22.7332 15.4012 22.865 16.9824 22.865 18.4318C22.7332 24.493 17.7262 29.5 11.5333 29.5ZM9.42504 4.46481C9.16151 6.17774 8.76622 7.89068 8.1074 9.07655C7.31681 10.3942 7.05329 10.7895 6.39447 11.5801L5.99917 11.9754C5.73564 12.2389 5.47212 12.5024 5.34035 12.766C4.8133 13.4248 4.418 13.8201 3.75918 14.7424C3.23213 15.6648 2.9686 16.9824 2.9686 18.6953C2.9686 23.3071 6.78976 26.9965 11.5333 26.9965C16.2768 26.9965 20.0979 23.1753 20.0979 18.4318C20.0979 17.1142 20.0979 15.9283 19.3074 13.8201C19.1756 13.4248 19.0438 13.1612 19.0438 12.8977C18.385 13.9518 17.5944 14.6106 17.1991 14.8742C16.8038 15.1377 16.2768 15.2695 15.7497 15.0059C15.3544 14.7424 14.9591 14.3471 14.9591 13.8201C14.9591 13.4248 13.905 9.86714 12.4556 7.62715C11.5333 6.30951 10.4792 5.25539 9.42504 4.46481Z" fill="#6F6E7C"/>
</svg>
